<?xml version="1.0" encoding="UTF-8"?>
<!-- Generated by IcoMoon.io -->
<!DOCTYPE svg PUBLIC "-//W3C//DTD SVG 1.1//EN" "http://www.w3.org/Graphics/SVG/1.1/DTD/svg11.dtd">
<svg version="1.1" xmlns="http://www.w3.org/2000/svg" xmlns:xlink="http://www.w3.org/1999/xlink" width="512" height="512" viewBox="0 0 512 512">
<g>
</g>
	<path d="M234.895 82.422c7.486 0 14.745 0.441 21.924 1.362-5.222 2.939-11.735 15.524-6.144 25.017-5.018-0.624-10.291-1.075-15.78-1.075-76.452 0-138.701 62.279-138.701 139.223 0 22.784 5.57 44.063 15.175 62.781h287.529v15.678h-19.221c-26.337 48.097-75.428 81.52-133.15 85.576h43.049v15.175h-109.353v-15.175h43.541c-85.545-5.581-153.385-76.964-153.385-164.045 0-91.115 73.892-164.516 164.516-164.516v0zM285.512 180.121c-3.563 6.083-2.539 13.68 2.017 21.739 5.058 0.522 16.722 5.581 28.355 12.165v0c12.144 7.117 22.282 14.704 24.822 18.739 9.605 0 16.691-3.021 20.234-8.622l70.882-121.979c3.533-6.103 2.529-13.159-1.536-20.757-3.533 0.502-16.681-4.557-29.849-12.165v0c-13.168-7.578-23.788-16.2-25.324-20.245-8.612 0.502-15.698 3.543-18.729 9.124l-33.403 57.18c0.502-2.017 0.502-4.045 0.502-6.062 0-17.224-13.671-31.376-30.894-31.376-17.214 0-30.863 14.162-30.863 31.376 0 17.203 13.65 30.884 30.863 30.884 8.1 0 15.196-3.021 20.746-7.598l-27.822 47.596zM379.269 41.964l23.173-21.32c8.12-7.076 42.025 10.64 38.994 22.784l-6.769 29.757c0 0-13.967-0.819-29.655-9.421v0c-15.196-9.124-25.743-21.801-25.743-21.801zM281.59 210.862c-0.921 0.379-6.717 29.481-6.717 29.481-2.509 10.66 29.86 31.396 39.014 22.784l21.453-19.743c-0.010 0-17.398-26.419-53.75-32.522zM122.522 432.22h224.758l23.255 60.764h-271.319l23.306-60.764zM120.494 325.397c24.802 36.464 66.826 60.242 114.401 60.242s89.59-23.777 114.893-60.242h-229.294zM167.588 299.878h174.1v-12.339h-174.101v12.339z" fill="#000000"/>
</svg>